<svg xmlns="http://www.w3.org/2000/svg" xmlns:xlink="http://www.w3.org/1999/xlink" width="1080" zoomAndPan="magnify" viewBox="0 0 810 809.999993" height="1080" preserveAspectRatio="xMidYMid meet" version="1.0"><path fill="#ff3131" d="M 670.542969 265.542969 C 670.542969 119.40625 552.027344 0 404.996094 0 C 257.96875 0 139.453125 119.40625 139.453125 265.542969 C 139.453125 310.097656 151.035156 352.871094 170.640625 390.296875 L 331.035156 692.375 L 378.265625 781.484375 C 393.414062 810 418.363281 810 433.511719 781.484375 L 463.808594 723.5625 L 640.242188 390.296875 C 659.847656 352.871094 670.542969 310.988281 670.542969 265.542969 Z M 670.542969 265.542969 " fill-opacity="1" fill-rule="nonzero"/><path fill="#ffffff" d="M 483.1875 392.757812 L 451.074219 360.648438 C 491.144531 328.210938 516.761719 278.625 516.761719 223.054688 C 516.761719 141.449219 461.515625 72.75 386.386719 52.308594 C 401.222656 48.273438 416.832031 46.117188 432.949219 46.117188 C 530.667969 46.117188 609.886719 125.335938 609.886719 223.054688 C 609.886719 268.132812 593.027344 309.269531 565.277344 340.515625 C 558.488281 331.398438 547.625 325.492188 535.386719 325.492188 C 514.8125 325.492188 498.136719 342.171875 498.136719 362.742188 C 498.136719 370.914062 500.765625 378.464844 505.222656 384.605469 C 498.113281 387.792969 490.753906 390.523438 483.1875 392.757812 Z M 483.1875 392.757812 " fill-opacity="1" fill-rule="nonzero"/><path fill="#ffffff" d="M 280.589844 149.582031 C 286.78125 148.234375 293.238281 150.128906 297.71875 154.613281 L 492.679688 349.570312 C 497.304688 354.195312 498.988281 360.652344 497.730469 366.609375 C 497.988281 367.203125 498.214844 367.816406 498.417969 368.445312 C 501.511719 378.253906 496.070312 388.714844 486.261719 391.8125 C 469.414062 397.128906 451.496094 399.988281 432.949219 399.988281 C 422.871094 399.988281 412.976562 399.144531 403.339844 397.523438 C 371.710938 392.191406 342.332031 395.902344 324.789062 413.425781 L 294.390625 443.824219 C 286.679688 451.535156 276.222656 455.867188 265.320312 455.867188 C 254.417969 455.863281 243.964844 451.535156 236.253906 443.824219 L 212.175781 419.746094 C 204.464844 412.035156 200.136719 401.582031 200.136719 390.675781 C 200.136719 379.777344 204.464844 369.320312 212.175781 361.609375 L 242.554688 331.230469 C 260.097656 313.6875 263.8125 284.296875 258.480469 252.664062 C 256.855469 243.023438 256.011719 233.128906 256.011719 223.050781 C 256.011719 201.359375 259.921875 180.535156 267.097656 161.277344 C 269.3125 155.339844 274.394531 150.929688 280.589844 149.582031 Z M 297.941406 275.847656 C 297.808594 265.679688 296.773438 255.746094 295.210938 246.46875 C 293.929688 238.867188 293.261719 231.046875 293.261719 223.050781 C 293.261719 216.621094 293.695312 210.292969 294.53125 204.101562 L 332.109375 241.675781 Z M 358.449219 268.019531 L 238.515625 387.949219 C 237.792969 388.671875 237.386719 389.65625 237.386719 390.675781 C 237.386719 391.703125 237.792969 392.679688 238.515625 393.40625 L 262.59375 417.484375 C 263.320312 418.207031 264.300781 418.617188 265.324219 418.617188 C 266.34375 418.617188 267.328125 418.207031 268.050781 417.484375 L 387.984375 297.550781 Z M 414.324219 323.894531 L 380.15625 358.0625 C 390.320312 358.191406 400.257812 359.226562 409.53125 360.789062 C 417.132812 362.070312 424.957031 362.738281 432.949219 362.738281 C 439.378906 362.738281 445.707031 362.308594 451.898438 361.46875 Z M 414.324219 323.894531 " fill-opacity="1" fill-rule="evenodd"/><path fill="#ffffff" d="M 535.386719 325.492188 C 514.8125 325.492188 498.136719 342.171875 498.136719 362.742188 C 498.136719 383.316406 514.8125 399.992188 535.386719 399.992188 C 555.957031 399.992188 572.636719 383.316406 572.636719 362.742188 C 572.636719 342.171875 555.957031 325.492188 535.386719 325.492188 Z M 460.886719 362.742188 C 460.886719 321.597656 494.242188 288.242188 535.386719 288.242188 C 576.53125 288.242188 609.886719 321.597656 609.886719 362.742188 C 609.886719 403.886719 576.53125 437.242188 535.386719 437.242188 C 494.242188 437.242188 460.886719 403.886719 460.886719 362.742188 Z M 460.886719 362.742188 " fill-opacity="1" fill-rule="evenodd"/></svg>