<svg xmlns="http://www.w3.org/2000/svg" xmlns:xlink="http://www.w3.org/1999/xlink" width="1080" zoomAndPan="magnify" viewBox="0 0 810 809.999993" height="1080" preserveAspectRatio="xMidYMid meet" version="1.0"><path fill="#00bf63" d="M 670.542969 265.542969 C 670.542969 119.40625 552.027344 0 404.996094 0 C 257.96875 0 139.453125 119.40625 139.453125 265.542969 C 139.453125 310.097656 151.035156 352.871094 170.640625 390.296875 L 331.035156 692.375 L 378.265625 781.484375 C 393.414062 810 418.363281 810 433.511719 781.484375 L 463.808594 723.5625 L 640.242188 390.296875 C 659.847656 352.871094 670.542969 310.988281 670.542969 265.542969 Z M 670.542969 265.542969 " fill-opacity="1" fill-rule="nonzero"/><path fill="#c4e6ff" d="M 347.445312 473.34375 C 445.316406 450.597656 518.242188 362.835938 518.242188 258.042969 C 518.242188 153.25 445.316406 65.492188 347.445312 42.746094 C 363.582031 38.996094 380.402344 37.011719 397.679688 37.011719 C 519.75 37.011719 618.710938 135.972656 618.710938 258.042969 C 618.710938 380.117188 519.75 479.074219 397.679688 479.074219 C 380.398438 479.074219 363.582031 477.09375 347.445312 473.34375 Z M 347.445312 473.34375 " fill-opacity="1" fill-rule="nonzero"/><path fill="#ffffff" d="M 397.679688 77.199219 C 297.800781 77.199219 216.835938 158.167969 216.835938 258.042969 C 216.835938 357.921875 297.800781 438.886719 397.679688 438.886719 C 497.558594 438.886719 578.523438 357.921875 578.523438 258.042969 C 578.523438 158.167969 497.558594 77.199219 397.679688 77.199219 Z M 176.648438 258.042969 C 176.648438 135.972656 275.605469 37.011719 397.679688 37.011719 C 519.75 37.011719 618.710938 135.972656 618.710938 258.042969 C 618.710938 380.117188 519.75 479.074219 397.679688 479.074219 C 275.605469 479.074219 176.648438 380.117188 176.648438 258.042969 Z M 176.648438 258.042969 " fill-opacity="1" fill-rule="evenodd"/><path fill="#ffffff" d="M 271.089844 100.195312 C 263.164062 92.425781 250.441406 92.550781 242.675781 100.476562 C 234.90625 108.402344 235.03125 121.121094 242.957031 128.890625 C 276.460938 161.738281 297.210938 207.449219 297.210938 258.039062 C 297.210938 308.632812 276.460938 354.34375 242.957031 387.191406 C 235.03125 394.957031 234.90625 407.679688 242.675781 415.605469 C 250.441406 423.53125 263.164062 423.65625 271.089844 415.886719 C 311.988281 375.796875 337.398438 319.867188 337.398438 258.039062 C 337.398438 196.214844 311.988281 140.285156 271.089844 100.195312 Z M 552.402344 128.890625 C 560.324219 121.121094 560.453125 108.402344 552.683594 100.476562 C 544.917969 92.550781 532.191406 92.425781 524.269531 100.195312 C 483.371094 140.285156 457.960938 196.214844 457.960938 258.039062 C 457.960938 319.867188 483.371094 375.796875 524.269531 415.886719 C 532.191406 423.65625 544.917969 423.53125 552.683594 415.605469 C 560.453125 407.679688 560.324219 394.957031 552.402344 387.191406 C 518.898438 354.34375 498.148438 308.632812 498.148438 258.039062 C 498.148438 207.449219 518.898438 161.738281 552.402344 128.890625 Z M 552.402344 128.890625 " fill-opacity="1" fill-rule="evenodd"/></svg>