<svg xmlns="http://www.w3.org/2000/svg" xmlns:xlink="http://www.w3.org/1999/xlink" width="1080" zoomAndPan="magnify" viewBox="0 0 810 809.999993" height="1080" preserveAspectRatio="xMidYMid meet" version="1.0"><path fill="#0cc0df" d="M 670.542969 265.542969 C 670.542969 119.40625 552.027344 0 404.996094 0 C 257.96875 0 139.453125 119.40625 139.453125 265.542969 C 139.453125 310.097656 151.035156 352.871094 170.640625 390.296875 L 331.035156 692.375 L 378.265625 781.484375 C 393.414062 810 418.363281 810 433.511719 781.484375 L 463.808594 723.5625 L 640.242188 390.296875 C 659.847656 352.871094 670.542969 310.988281 670.542969 265.542969 Z M 670.542969 265.542969 " fill-opacity="1" fill-rule="nonzero"/><path fill="#c4e6ff" d="M 352.082031 488.097656 C 454.972656 464.183594 531.644531 371.917969 531.644531 261.75 C 531.644531 151.578125 454.972656 59.3125 352.082031 35.402344 C 369.046875 31.457031 386.726562 29.375 404.894531 29.375 C 533.230469 29.375 637.269531 133.410156 637.269531 261.75 C 637.269531 390.085938 533.230469 494.125 404.894531 494.125 C 386.726562 494.125 369.046875 492.039062 352.082031 488.097656 Z M 352.082031 488.097656 " fill-opacity="1" fill-rule="nonzero"/><path fill="#ffffff" d="M 404.894531 71.625 C 299.890625 71.625 214.769531 156.746094 214.769531 261.75 C 214.769531 366.753906 299.890625 451.875 404.894531 451.875 C 509.898438 451.875 595.019531 366.753906 595.019531 261.75 C 595.019531 156.746094 509.898438 71.625 404.894531 71.625 Z M 172.519531 261.75 C 172.519531 133.410156 276.554688 29.375 404.894531 29.375 C 533.230469 29.375 637.269531 133.410156 637.269531 261.75 C 637.269531 390.085938 533.230469 494.125 404.894531 494.125 C 276.554688 494.125 172.519531 390.085938 172.519531 261.75 Z M 172.519531 261.75 " fill-opacity="1" fill-rule="evenodd"/><path fill="#ffffff" d="M 337.898438 44.011719 C 344.757812 34.574219 357.96875 32.484375 367.40625 39.339844 L 404.988281 66.644531 L 442.519531 39.371094 C 451.960938 32.511719 465.167969 34.601562 472.027344 44.042969 C 478.886719 53.480469 476.792969 66.691406 467.355469 73.550781 L 426.03125 103.574219 L 426.101562 166.480469 L 489.054688 212.21875 L 548.917969 192.738281 L 564.65625 144.339844 C 568.261719 133.246094 580.183594 127.175781 591.277344 130.78125 C 602.375 134.390625 608.441406 146.308594 604.835938 157.40625 L 590.484375 201.542969 L 627.984375 228.808594 C 637.421875 235.671875 639.507812 248.882812 632.648438 258.320312 C 625.785156 267.757812 612.574219 269.84375 603.140625 262.980469 L 561.851562 232.960938 L 502.117188 252.398438 L 478.066406 326.414062 L 515.03125 377.378906 L 565.9375 377.328125 C 577.601562 377.316406 587.070312 386.765625 587.082031 398.429688 C 587.09375 410.097656 577.648438 419.566406 565.980469 419.578125 L 519.511719 419.625 L 505.167969 463.777344 C 501.566406 474.875 489.648438 480.949219 478.550781 477.34375 C 467.457031 473.738281 461.382812 461.820312 464.984375 450.726562 L 480.777344 402.109375 L 443.878906 351.234375 L 365.933594 351.199219 L 328.9375 402.21875 L 344.65625 450.667969 C 348.253906 461.765625 342.175781 473.679688 331.078125 477.28125 C 319.980469 480.882812 308.066406 474.804688 304.46875 463.707031 L 290.132812 419.523438 L 243.726562 419.472656 C 232.058594 419.460938 222.613281 409.996094 222.625 398.328125 C 222.636719 386.660156 232.101562 377.210938 243.769531 377.222656 L 294.835938 377.277344 L 331.753906 326.359375 L 307.785156 252.324219 L 247.835938 232.917969 L 206.667969 262.851562 C 197.230469 269.710938 184.019531 267.625 177.15625 258.1875 C 170.296875 248.753906 172.382812 235.539062 181.820312 228.679688 L 219.367188 201.378906 L 205.03125 157.289062 C 201.421875 146.195312 207.492188 134.277344 218.589844 130.667969 C 229.683594 127.0625 241.601562 133.132812 245.210938 144.226562 L 260.992188 192.765625 L 320.855469 212.144531 L 383.851562 166.480469 L 383.78125 103.464844 L 342.570312 73.519531 C 333.132812 66.664062 331.039062 53.453125 337.898438 44.011719 Z M 404.972656 203.351562 L 349.386719 243.644531 L 370.527344 308.953125 L 439.308594 308.980469 L 460.519531 243.710938 Z M 404.972656 203.351562 " fill-opacity="1" fill-rule="evenodd"/></svg>