<svg xmlns="http://www.w3.org/2000/svg" xmlns:xlink="http://www.w3.org/1999/xlink" width="1080" zoomAndPan="magnify" viewBox="0 0 810 809.999993" height="1080" preserveAspectRatio="xMidYMid meet" version="1.0"><path fill="#ff914d" d="M 670.542969 265.542969 C 670.542969 119.40625 552.027344 0 404.996094 0 C 257.96875 0 139.453125 119.40625 139.453125 265.542969 C 139.453125 310.097656 151.035156 352.871094 170.640625 390.296875 L 331.035156 692.375 L 378.265625 781.484375 C 393.414062 810 418.363281 810 433.511719 781.484375 L 463.808594 723.5625 L 640.242188 390.296875 C 659.847656 352.871094 670.542969 310.988281 670.542969 265.542969 Z M 670.542969 265.542969 " fill-opacity="1" fill-rule="nonzero"/><path fill="#c4e6ff" d="M 352.628906 483.753906 C 454.609375 460.054688 530.597656 368.609375 530.597656 259.417969 C 530.597656 150.222656 454.609375 58.777344 352.628906 35.078125 C 369.445312 31.167969 386.96875 29.105469 404.972656 29.105469 C 532.171875 29.105469 635.285156 132.21875 635.285156 259.417969 C 635.285156 386.613281 532.171875 489.730469 404.972656 489.730469 C 386.96875 489.730469 369.445312 487.664062 352.628906 483.753906 Z M 352.628906 483.753906 " fill-opacity="1" fill-rule="nonzero"/><path fill="#ffffff" d="M 404.972656 70.980469 C 300.902344 70.980469 216.535156 155.34375 216.535156 259.417969 C 216.535156 363.488281 300.902344 447.855469 404.972656 447.855469 C 509.046875 447.855469 593.410156 363.488281 593.410156 259.417969 C 593.410156 155.34375 509.046875 70.980469 404.972656 70.980469 Z M 174.660156 259.417969 C 174.660156 132.21875 277.773438 29.105469 404.972656 29.105469 C 532.171875 29.105469 635.285156 132.21875 635.285156 259.417969 C 635.285156 386.613281 532.171875 489.730469 404.972656 489.730469 C 277.773438 489.730469 174.660156 386.613281 174.660156 259.417969 Z M 174.660156 259.417969 " fill-opacity="1" fill-rule="evenodd"/><path fill="#ffffff" d="M 422.996094 30.140625 C 434.503906 29.046875 444.722656 37.496094 445.8125 49.007812 C 446.5 56.246094 446.847656 63.574219 446.847656 70.976562 C 446.847656 115.449219 434.226562 157.015625 412.371094 192.242188 C 434.15625 210.207031 454.179688 230.230469 472.148438 252.015625 C 507.371094 230.164062 548.941406 217.539062 593.410156 217.539062 C 600.8125 217.539062 608.144531 217.890625 615.378906 218.574219 C 626.890625 219.667969 635.339844 229.882812 634.25 241.394531 C 633.160156 252.90625 622.941406 261.355469 611.433594 260.265625 C 605.503906 259.703125 599.496094 259.417969 593.410156 259.417969 C 558.296875 259.417969 525.460938 269.003906 497.335938 285.707031 C 524.011719 325.179688 544.449219 369.226562 557.230469 416.4375 C 560.253906 427.597656 553.65625 439.097656 542.492188 442.117188 C 531.332031 445.140625 519.832031 438.539062 516.8125 427.382812 C 505.457031 385.4375 487.410156 346.238281 463.875 310.992188 C 427.574219 345.363281 404.972656 393.964844 404.972656 447.855469 C 404.972656 453.9375 405.261719 459.945312 405.820312 465.875 C 406.914062 477.386719 398.464844 487.601562 386.953125 488.691406 C 375.441406 489.78125 365.222656 481.335938 364.132812 469.824219 C 363.449219 462.585938 363.097656 455.257812 363.097656 447.855469 C 363.097656 380.203125 392.28125 319.367188 438.679688 277.257812 C 423.101562 258.546875 405.84375 241.285156 387.128906 225.707031 C 345.019531 272.109375 284.183594 301.292969 216.535156 301.292969 C 209.132812 301.292969 201.800781 300.941406 194.566406 300.253906 C 183.054688 299.164062 174.605469 288.949219 175.695312 277.4375 C 176.785156 265.921875 187.003906 257.476562 198.515625 258.566406 C 204.441406 259.128906 210.453125 259.417969 216.535156 259.417969 C 270.421875 259.417969 319.027344 236.8125 353.394531 200.511719 C 318.148438 176.976562 278.949219 158.929688 237.007812 147.578125 C 225.847656 144.554688 219.25 133.058594 222.269531 121.898438 C 225.292969 110.734375 236.789062 104.136719 247.949219 107.15625 C 295.160156 119.9375 339.210938 140.378906 378.679688 167.050781 C 395.386719 138.925781 404.972656 106.09375 404.972656 70.976562 C 404.972656 64.894531 404.683594 58.882812 404.125 52.957031 C 403.03125 41.445312 411.480469 31.230469 422.996094 30.140625 Z M 422.996094 30.140625 " fill-opacity="1" fill-rule="evenodd"/></svg>