<svg xmlns="http://www.w3.org/2000/svg" xmlns:xlink="http://www.w3.org/1999/xlink" width="1080" zoomAndPan="magnify" viewBox="0 0 810 809.999993" height="1080" preserveAspectRatio="xMidYMid meet" version="1.0"><path fill="#004aad" d="M 670.542969 265.542969 C 670.542969 119.40625 552.027344 0 404.996094 0 C 257.96875 0 139.453125 119.40625 139.453125 265.542969 C 139.453125 310.097656 151.035156 352.871094 170.640625 390.296875 L 331.035156 692.375 L 378.265625 781.484375 C 393.414062 810 418.363281 810 433.511719 781.484375 L 463.808594 723.5625 L 640.242188 390.296875 C 659.847656 352.871094 670.542969 310.988281 670.542969 265.542969 Z M 670.542969 265.542969 " fill-opacity="1" fill-rule="nonzero"/><path fill="#c4e6ff" d="M 354.074219 474.949219 C 453.3125 451.886719 527.261719 362.898438 527.261719 256.640625 C 527.261719 150.378906 453.3125 61.390625 354.074219 38.328125 C 370.4375 34.523438 387.488281 32.515625 405.011719 32.515625 C 528.789062 32.515625 629.136719 132.859375 629.136719 256.640625 C 629.136719 380.417969 528.789062 480.765625 405.011719 480.765625 C 387.488281 480.765625 370.4375 478.753906 354.074219 474.949219 Z M 354.074219 474.949219 " fill-opacity="1" fill-rule="nonzero"/><path fill="#ffffff" d="M 405.011719 73.265625 C 303.734375 73.265625 221.636719 155.363281 221.636719 256.640625 C 221.636719 357.914062 303.734375 440.015625 405.011719 440.015625 C 506.285156 440.015625 588.386719 357.914062 588.386719 256.640625 C 588.386719 155.363281 506.285156 73.265625 405.011719 73.265625 Z M 180.886719 256.640625 C 180.886719 132.859375 281.230469 32.515625 405.011719 32.515625 C 528.789062 32.515625 629.136719 132.859375 629.136719 256.640625 C 629.136719 380.417969 528.789062 480.765625 405.011719 480.765625 C 281.230469 480.765625 180.886719 380.417969 180.886719 256.640625 Z M 180.886719 256.640625 " fill-opacity="1" fill-rule="evenodd"/><path fill="#ffffff" d="M 427.546875 226.871094 C 419.664062 229.117188 413.105469 231.378906 408.042969 233.296875 C 404.824219 230.621094 400.824219 227.109375 396.324219 222.746094 C 386.089844 212.835938 373.347656 198.628906 361.21875 180.007812 C 363.304688 179.3125 365.511719 178.59375 367.832031 177.859375 C 385.773438 172.183594 410.015625 165.648438 435.714844 161.945312 C 488.285156 154.371094 532.933594 155.359375 570.589844 165.019531 C 581.492188 167.816406 592.59375 161.246094 595.390625 150.347656 C 598.1875 139.449219 591.617188 128.34375 580.71875 125.550781 C 536.304688 114.15625 485.9375 113.539062 429.90625 121.609375 C 401.304688 125.730469 374.789062 132.917969 355.539062 139.011719 C 350.339844 140.65625 345.644531 142.230469 341.554688 143.652344 C 335.019531 128.808594 330.804688 115.371094 328.101562 104.589844 C 326.035156 96.335938 324.863281 89.683594 324.214844 85.207031 C 323.914062 83.117188 323.640625 81.019531 323.476562 78.917969 C 322.785156 67.847656 312.980469 59.179688 301.910156 59.851562 C 290.679688 60.53125 282.125 70.1875 282.804688 81.417969 C 282.875 82.371094 282.953125 83.324219 283.046875 84.277344 C 283.210938 85.902344 283.472656 88.179688 283.882812 91.035156 C 284.707031 96.738281 286.136719 104.765625 288.574219 114.5 C 293.449219 133.941406 302.410156 160.378906 318.8125 188.789062 C 335.15625 217.097656 353.566406 238.066406 367.96875 252.019531 C 373.859375 257.722656 379.101562 262.277344 383.292969 265.703125 C 382.589844 269.824219 381.546875 275.042969 380.023438 281.121094 C 376.554688 294.941406 370.621094 313.078125 360.558594 332.890625 C 358.917969 331.433594 357.191406 329.878906 355.394531 328.238281 C 341.507812 315.542969 323.722656 297.8125 307.667969 277.40625 C 274.824219 235.667969 253.355469 196.507812 242.894531 159.066406 C 239.867188 148.226562 228.625 141.894531 217.789062 144.925781 C 206.953125 147.953125 200.621094 159.191406 203.648438 170.03125 C 215.988281 214.1875 240.636719 258.117188 275.644531 302.605469 C 293.511719 325.316406 312.996094 344.683594 327.894531 358.308594 C 331.921875 361.988281 335.628906 365.269531 338.910156 368.101562 C 329.320312 381.179688 319.789062 391.550781 311.804688 399.28125 C 305.691406 405.195312 300.515625 409.539062 296.960938 412.339844 C 295.304688 413.644531 293.625 414.929688 291.882812 416.121094 C 282.644531 422.257812 280.039062 435.082031 286.15625 444.332031 C 292.359375 453.71875 305 456.300781 314.386719 450.09375 C 315.179688 449.558594 315.964844 449.015625 316.742188 448.457031 C 318.066406 447.5 319.910156 446.136719 322.175781 444.351562 C 326.703125 440.785156 332.9375 435.539062 340.148438 428.558594 C 354.550781 414.613281 372.964844 393.636719 389.367188 365.226562 C 405.714844 336.917969 414.664062 310.488281 419.546875 291.039062 C 421.542969 283.089844 422.863281 276.273438 423.734375 270.933594 C 427.660156 269.480469 432.695312 267.777344 438.714844 266.058594 C 452.417969 262.15625 471.09375 258.222656 493.285156 257.027344 C 492.84375 259.183594 492.359375 261.453125 491.835938 263.832031 C 487.785156 282.203125 481.324219 306.46875 471.679688 330.578125 C 451.953125 379.890625 428.773438 418.0625 401.578125 445.84375 C 393.707031 453.886719 393.84375 466.785156 401.882812 474.65625 C 409.925781 482.527344 422.824219 482.390625 430.695312 474.351562 C 462.769531 441.585938 488.488281 398.273438 509.511719 345.710938 C 520.246094 318.882812 527.28125 292.324219 531.628906 272.609375 C 532.804688 267.28125 533.789062 262.429688 534.597656 258.175781 C 550.722656 259.941406 564.46875 263.007812 575.15625 266.058594 C 583.335938 268.394531 589.683594 270.703125 593.882812 272.382812 C 595.84375 273.167969 597.796875 273.976562 599.703125 274.890625 C 609.632812 279.820312 622.042969 275.667969 626.996094 265.746094 C 632.023438 255.675781 627.9375 243.441406 617.871094 238.414062 C 617.011719 237.996094 616.144531 237.589844 615.273438 237.195312 C 613.785156 236.523438 611.679688 235.613281 609.003906 234.542969 C 603.652344 232.402344 595.988281 229.625 586.335938 226.875 C 567.0625 221.371094 539.6875 215.914062 506.882812 215.914062 C 474.195312 215.914062 446.828125 221.375 427.546875 226.871094 Z M 427.546875 226.871094 " fill-opacity="1" fill-rule="nonzero"/></svg>