<svg xmlns="http://www.w3.org/2000/svg" xmlns:xlink="http://www.w3.org/1999/xlink" width="1080" zoomAndPan="magnify" viewBox="0 0 810 809.999993" height="1080" preserveAspectRatio="xMidYMid meet" version="1.0"><path fill="#38b6ff" d="M 670.054688 265.542969 C 670.054688 119.40625 551.539062 0 404.507812 0 C 257.480469 0 138.964844 119.40625 138.964844 265.542969 C 138.964844 310.097656 150.546875 352.871094 170.152344 390.296875 L 330.550781 692.375 L 377.777344 781.484375 C 392.925781 810 417.875 810 433.023438 781.484375 L 463.320312 723.5625 L 639.757812 390.296875 C 659.359375 352.871094 670.054688 310.988281 670.054688 265.542969 Z M 670.054688 265.542969 " fill-opacity="1" fill-rule="nonzero"/><path fill="#ffffff" d="M 275.734375 90.613281 C 283.84375 58.175781 312.988281 35.417969 346.425781 35.417969 C 371.222656 35.417969 394.214844 48.015625 407.589844 68.679688 C 419.550781 48.257812 441.554688 35.417969 465.632812 35.417969 C 498.835938 35.417969 527.070312 59.644531 532.121094 92.460938 L 562.757812 291.605469 C 563.652344 297.429688 561.722656 303.335938 557.554688 307.5 L 465.058594 400 C 460.894531 404.167969 454.988281 406.101562 449.164062 405.203125 L 250.019531 374.566406 C 217.203125 369.515625 192.976562 341.28125 192.976562 308.078125 C 192.976562 283.996094 205.820312 261.992188 226.242188 250.035156 C 205.578125 236.660156 192.976562 213.664062 192.976562 188.867188 C 192.976562 155.429688 215.734375 126.285156 248.171875 118.175781 L 250.503906 117.59375 C 257.988281 115.722656 265.601562 115.054688 273.085938 115.527344 C 272.613281 108.042969 273.28125 100.429688 275.152344 92.945312 Z M 294.453125 163.058594 C 285.269531 153.984375 272.011719 150.355469 259.480469 153.488281 L 257.144531 154.070312 C 241.179688 158.0625 229.976562 172.410156 229.976562 188.867188 C 229.976562 201.738281 236.875 213.625 248.050781 220.011719 L 467.386719 345.347656 L 472.0625 340.667969 L 294.617188 163.21875 C 294.5625 163.167969 294.507812 163.113281 294.453125 163.058594 Z M 438.402344 122.371094 L 521.71875 268.179688 L 495.550781 98.085938 C 493.277344 83.320312 480.574219 72.417969 465.632812 72.417969 C 453.523438 72.417969 442.578125 79.636719 437.808594 90.765625 L 436.925781 92.828125 C 432.832031 102.382812 433.382812 113.285156 438.402344 122.371094 Z M 346.425781 72.417969 C 329.96875 72.417969 315.621094 83.621094 311.628906 99.585938 L 311.046875 101.921875 C 307.894531 114.53125 311.589844 127.867188 320.777344 137.058594 L 498.226562 314.507812 L 502.90625 309.828125 L 377.570312 90.492188 C 371.183594 79.316406 359.296875 72.417969 346.425781 72.417969 Z M 250.386719 279.371094 C 260.09375 275.210938 271.1875 275.84375 280.355469 281.085938 L 425.746094 364.164062 L 255.644531 337.996094 C 240.878906 335.722656 229.976562 323.019531 229.976562 308.078125 C 229.976562 295.96875 237.195312 285.023438 248.324219 280.253906 Z M 250.386719 279.371094 " fill-opacity="1" fill-rule="evenodd"/><path fill="#ffffff" d="M 531.394531 281.335938 C 538.621094 274.113281 550.335938 274.113281 557.558594 281.335938 L 575.402344 299.179688 C 591.136719 314.914062 599.976562 336.257812 599.976562 358.511719 C 599.976562 404.851562 562.410156 442.417969 516.070312 442.417969 C 493.816406 442.417969 472.472656 433.578125 456.738281 417.84375 L 438.894531 400 C 431.671875 392.777344 431.671875 381.0625 438.894531 373.835938 Z M 478.140625 386.917969 L 482.902344 391.679688 C 491.699219 400.476562 503.628906 405.417969 516.070312 405.417969 C 541.976562 405.417969 562.976562 384.417969 562.976562 358.511719 C 562.976562 346.070312 558.035156 334.140625 549.238281 325.34375 L 544.476562 320.582031 Z M 478.140625 386.917969 " fill-opacity="1" fill-rule="evenodd"/></svg>