<svg xmlns="http://www.w3.org/2000/svg" xmlns:xlink="http://www.w3.org/1999/xlink" width="1080" zoomAndPan="magnify" viewBox="0 0 810 809.999993" height="1080" preserveAspectRatio="xMidYMid meet" version="1.0"><path fill="#ffde59" d="M 670.542969 265.542969 C 670.542969 119.40625 552.027344 0 404.996094 0 C 257.96875 0 139.453125 119.40625 139.453125 265.542969 C 139.453125 310.097656 151.035156 352.871094 170.640625 390.296875 L 331.035156 692.375 L 378.265625 781.484375 C 393.414062 810 418.363281 810 433.511719 781.484375 L 463.808594 723.5625 L 640.242188 390.296875 C 659.847656 352.871094 670.542969 310.988281 670.542969 265.542969 Z M 670.542969 265.542969 " fill-opacity="1" fill-rule="nonzero"/><path fill="#c4e6ff" d="M 580.179688 134.988281 L 550.03125 104.839844 L 450.882812 203.988281 L 481.03125 234.136719 C 488.613281 241.71875 498.890625 245.976562 509.613281 245.976562 C 520.332031 245.976562 530.613281 241.71875 538.191406 234.136719 L 580.179688 192.148438 C 587.757812 184.570312 592.019531 174.289062 592.019531 163.570312 C 592.019531 152.851562 587.757812 142.570312 580.179688 134.988281 Z M 279.59375 435.574219 L 249.445312 405.425781 L 348.59375 306.277344 L 378.742188 336.425781 C 386.320312 344.007812 390.582031 354.289062 390.582031 365.007812 C 390.582031 375.726562 386.320312 386.007812 378.742188 393.585938 L 336.753906 435.574219 C 329.175781 443.15625 318.894531 447.414062 308.175781 447.414062 C 297.457031 447.414062 287.175781 443.15625 279.59375 435.574219 Z M 279.59375 435.574219 " fill-opacity="1" fill-rule="evenodd"/><path fill="#ffffff" d="M 568.339844 94.109375 C 575.492188 86.960938 575.492188 75.363281 568.339844 68.214844 C 561.191406 61.0625 549.59375 61.0625 542.441406 68.214844 L 514.972656 95.683594 C 507.824219 102.832031 507.824219 114.429688 514.972656 121.578125 C 522.125 128.730469 533.722656 128.730469 540.871094 121.578125 Z M 467.621094 168.933594 C 474.773438 176.082031 474.773438 187.679688 467.621094 194.828125 L 339.433594 323.015625 C 332.285156 330.167969 320.6875 330.167969 313.535156 323.015625 C 306.386719 315.867188 306.386719 304.269531 313.535156 297.121094 L 441.726562 168.933594 C 448.875 161.78125 460.472656 161.78125 467.621094 168.933594 Z M 266.183594 370.371094 C 273.335938 377.519531 273.335938 389.117188 266.183594 396.265625 L 238.714844 423.734375 C 231.566406 430.886719 219.96875 430.886719 212.816406 423.734375 C 205.667969 416.585938 205.667969 404.988281 212.816406 397.839844 L 240.285156 370.371094 C 247.4375 363.21875 259.035156 363.21875 266.183594 370.371094 Z M 266.183594 370.371094 " fill-opacity="1" fill-rule="evenodd"/><path fill="#ffffff" d="M 470.304688 82.273438 C 471.015625 81.5625 471.980469 81.160156 472.984375 81.160156 C 473.992188 81.160156 474.957031 81.5625 475.667969 82.273438 L 554.28125 160.886719 C 554.992188 161.597656 555.390625 162.5625 555.390625 163.566406 C 555.390625 164.574219 554.992188 165.539062 554.28125 166.25 L 512.292969 208.238281 C 511.582031 208.949219 510.617188 209.347656 509.609375 209.347656 C 508.605469 209.347656 507.640625 208.949219 506.929688 208.238281 L 428.316406 129.625 C 427.605469 128.914062 427.203125 127.949219 427.203125 126.941406 C 427.203125 125.9375 427.605469 124.972656 428.316406 124.261719 Z M 472.984375 44.535156 C 462.265625 44.535156 451.988281 48.796875 444.40625 56.375 L 402.417969 98.363281 C 394.835938 105.945312 390.578125 116.222656 390.578125 126.941406 C 390.578125 137.664062 394.835938 147.941406 402.417969 155.523438 L 481.03125 234.136719 C 488.613281 241.71875 498.890625 245.972656 509.609375 245.972656 C 520.332031 245.972656 530.609375 241.71875 538.191406 234.136719 L 580.179688 192.148438 C 587.757812 184.566406 592.015625 174.289062 592.015625 163.566406 C 592.015625 152.847656 587.757812 142.570312 580.179688 134.988281 L 501.566406 56.375 C 493.984375 48.796875 483.707031 44.535156 472.984375 44.535156 Z M 268.867188 283.710938 C 269.578125 283 270.542969 282.597656 271.546875 282.597656 C 272.554688 282.597656 273.519531 283 274.230469 283.710938 L 352.84375 362.324219 C 353.554688 363.035156 353.953125 364 353.953125 365.003906 C 353.953125 366.011719 353.554688 366.976562 352.84375 367.6875 L 310.855469 409.675781 C 310.144531 410.386719 309.179688 410.785156 308.171875 410.785156 C 307.167969 410.785156 306.203125 410.386719 305.492188 409.675781 L 226.878906 331.0625 C 226.167969 330.351562 225.765625 329.386719 225.765625 328.378906 C 225.765625 327.375 226.167969 326.410156 226.878906 325.699219 Z M 271.546875 245.972656 C 260.828125 245.972656 250.546875 250.230469 242.96875 257.8125 L 200.980469 299.800781 C 193.398438 307.382812 189.140625 317.660156 189.140625 328.378906 C 189.140625 339.101562 193.402344 349.378906 200.980469 356.960938 L 279.59375 435.574219 C 287.171875 443.15625 297.453125 447.410156 308.171875 447.410156 C 318.894531 447.410156 329.171875 443.15625 336.753906 435.574219 L 378.742188 393.585938 C 386.320312 386.003906 390.578125 375.726562 390.578125 365.003906 C 390.578125 354.285156 386.320312 344.007812 378.742188 336.425781 L 300.128906 257.8125 C 292.546875 250.230469 282.269531 245.972656 271.546875 245.972656 Z M 271.546875 245.972656 " fill-opacity="1" fill-rule="evenodd"/></svg>