<svg xmlns="http://www.w3.org/2000/svg" xmlns:xlink="http://www.w3.org/1999/xlink" width="1080" zoomAndPan="magnify" viewBox="0 0 810 809.999993" height="1080" preserveAspectRatio="xMidYMid meet" version="1.0"><path fill="#1800ad" d="M 670.542969 265.542969 C 670.542969 119.40625 552.027344 0 404.996094 0 C 257.96875 0 139.453125 119.40625 139.453125 265.542969 C 139.453125 310.097656 151.035156 352.871094 170.640625 390.296875 L 331.035156 692.375 L 378.265625 781.484375 C 393.414062 810 418.363281 810 433.511719 781.484375 L 463.808594 723.5625 L 640.242188 390.296875 C 659.847656 352.871094 670.542969 310.988281 670.542969 265.542969 Z M 670.542969 265.542969 " fill-opacity="1" fill-rule="nonzero"/><path fill="#ffffff" d="M 200.597656 313.296875 C 200.597656 313.296875 220.234375 304.453125 238.003906 296.449219 C 251.214844 290.515625 266.488281 291.417969 278.910156 298.867188 L 287.65625 304.117188 C 311.007812 318.113281 340.160156 318.113281 363.511719 304.117188 L 368.34375 301.207031 C 382.359375 292.816406 399.855469 292.816406 413.871094 301.207031 L 418.703125 304.117188 C 442.054688 318.113281 471.207031 318.113281 494.558594 304.117188 L 503.304688 298.867188 C 515.726562 291.417969 531 290.515625 544.210938 296.449219 C 561.980469 304.453125 581.617188 313.296875 581.617188 313.296875 C 589.046875 316.636719 597.773438 313.316406 601.113281 305.90625 C 604.457031 298.476562 601.132812 289.75 593.722656 286.40625 C 593.722656 286.40625 574.085938 277.5625 556.296875 269.5625 C 534.304688 259.675781 508.828125 261.167969 488.128906 273.589844 C 488.128906 273.589844 479.382812 278.839844 479.382812 278.839844 C 465.367188 287.230469 447.875 287.230469 433.878906 278.839844 L 429.023438 275.929688 C 405.691406 261.914062 376.523438 261.914062 353.191406 275.929688 L 348.335938 278.839844 C 334.339844 287.230469 316.847656 287.230469 302.832031 278.839844 L 294.085938 273.589844 C 273.386719 261.167969 247.910156 259.675781 225.917969 269.5625 C 208.128906 277.5625 188.492188 286.40625 188.492188 286.40625 C 181.082031 289.75 177.757812 298.476562 181.101562 305.90625 C 184.441406 313.316406 193.167969 316.636719 200.597656 313.296875 Z M 200.597656 391.980469 C 200.597656 391.980469 220.234375 383.136719 238.003906 375.136719 C 251.214844 369.199219 266.488281 370.101562 278.910156 377.554688 L 287.65625 382.800781 C 311.007812 396.796875 340.160156 396.796875 363.511719 382.800781 L 368.34375 379.890625 C 382.359375 371.5 399.855469 371.5 413.871094 379.890625 L 418.703125 382.800781 C 442.054688 396.796875 471.207031 396.796875 494.558594 382.800781 L 503.304688 377.554688 C 515.726562 370.101562 531 369.199219 544.210938 375.136719 C 561.980469 383.136719 581.617188 391.980469 581.617188 391.980469 C 589.046875 395.320312 597.773438 392 601.113281 384.589844 C 604.457031 377.160156 601.132812 368.433594 593.722656 365.089844 C 593.722656 365.089844 574.085938 356.246094 556.296875 348.246094 C 534.304688 338.339844 508.828125 339.851562 488.128906 352.253906 C 488.128906 352.253906 479.382812 357.523438 479.382812 357.523438 C 465.367188 365.917969 447.875 365.917969 433.878906 357.523438 L 429.023438 354.613281 C 405.691406 340.597656 376.523438 340.597656 353.191406 354.613281 L 348.335938 357.523438 C 334.339844 365.917969 316.847656 365.917969 302.832031 357.523438 L 294.085938 352.253906 C 273.386719 339.851562 247.910156 338.339844 225.917969 348.246094 C 208.128906 356.246094 188.492188 365.089844 188.492188 365.089844 C 181.082031 368.433594 177.757812 377.160156 181.101562 384.589844 C 184.441406 392 193.167969 395.320312 200.597656 391.980469 Z M 450.074219 120.84375 C 414.8125 120.84375 386.191406 149.460938 386.191406 184.726562 C 386.191406 219.988281 414.8125 248.609375 450.074219 248.609375 C 485.339844 248.609375 513.957031 219.988281 513.957031 184.726562 C 513.957031 149.460938 485.339844 120.84375 450.074219 120.84375 Z M 450.074219 150.328125 C 469.0625 150.328125 484.472656 165.738281 484.472656 184.726562 C 484.472656 203.714844 469.0625 219.125 450.074219 219.125 C 431.089844 219.125 415.675781 203.714844 415.675781 184.726562 C 415.675781 165.738281 431.089844 150.328125 450.074219 150.328125 Z M 450.074219 150.328125 " fill-opacity="1" fill-rule="evenodd"/><path fill="#ffffff" d="M 341.964844 224.039062 C 341.964844 145.394531 405.828125 81.53125 484.472656 81.53125 C 492.613281 81.53125 499.214844 74.925781 499.214844 66.789062 C 499.214844 58.648438 492.613281 52.046875 484.472656 52.046875 C 389.554688 52.046875 312.480469 129.117188 312.480469 224.039062 C 312.480469 232.175781 319.085938 238.78125 327.222656 238.78125 C 335.363281 238.78125 341.964844 232.175781 341.964844 224.039062 Z M 341.964844 224.039062 " fill-opacity="1" fill-rule="evenodd"/></svg>