<svg xmlns="http://www.w3.org/2000/svg" xmlns:xlink="http://www.w3.org/1999/xlink" width="1080" zoomAndPan="magnify" viewBox="0 0 810 809.999993" height="1080" preserveAspectRatio="xMidYMid meet" version="1.0"><path fill="#7ed957" d="M 670.542969 265.542969 C 670.542969 119.40625 552.027344 0 404.996094 0 C 257.96875 0 139.453125 119.40625 139.453125 265.542969 C 139.453125 310.097656 151.035156 352.871094 170.640625 390.296875 L 331.035156 692.375 L 378.265625 781.484375 C 393.414062 810 418.363281 810 433.511719 781.484375 L 463.808594 723.5625 L 640.242188 390.296875 C 659.847656 352.871094 670.542969 310.988281 670.542969 265.542969 Z M 670.542969 265.542969 " fill-opacity="1" fill-rule="nonzero"/><path fill="#c4e6ff" d="M 354.847656 473.34375 C 452.71875 450.597656 525.644531 362.835938 525.644531 258.042969 C 525.644531 153.25 452.71875 65.492188 354.847656 42.746094 C 370.984375 38.996094 387.800781 37.011719 405.082031 37.011719 C 527.152344 37.011719 626.113281 135.972656 626.113281 258.042969 C 626.113281 380.117188 527.152344 479.074219 405.082031 479.074219 C 387.800781 479.074219 370.984375 477.09375 354.847656 473.34375 Z M 354.847656 473.34375 " fill-opacity="1" fill-rule="nonzero"/><path fill="#ffffff" d="M 405.082031 77.199219 C 305.203125 77.199219 224.238281 158.167969 224.238281 258.042969 C 224.238281 357.921875 305.203125 438.886719 405.082031 438.886719 C 504.960938 438.886719 585.925781 357.921875 585.925781 258.042969 C 585.925781 158.167969 504.960938 77.199219 405.082031 77.199219 Z M 184.050781 258.042969 C 184.050781 135.972656 283.007812 37.011719 405.082031 37.011719 C 527.152344 37.011719 626.113281 135.972656 626.113281 258.042969 C 626.113281 380.117188 527.152344 479.074219 405.082031 479.074219 C 283.007812 479.074219 184.050781 380.117188 184.050781 258.042969 Z M 184.050781 258.042969 " fill-opacity="1" fill-rule="evenodd"/><path fill="#ffffff" d="M 278.492188 100.195312 C 270.566406 92.425781 257.84375 92.550781 250.074219 100.476562 C 242.308594 108.402344 242.433594 121.121094 250.359375 128.890625 C 283.863281 161.738281 304.613281 207.449219 304.613281 258.039062 C 304.613281 308.632812 283.863281 354.34375 250.359375 387.191406 C 242.433594 394.960938 242.308594 407.679688 250.074219 415.605469 C 257.84375 423.53125 270.566406 423.65625 278.492188 415.886719 C 319.386719 375.796875 344.800781 319.867188 344.800781 258.039062 C 344.800781 196.214844 319.386719 140.285156 278.492188 100.195312 Z M 559.804688 128.890625 C 567.726562 121.121094 567.855469 108.402344 560.085938 100.476562 C 552.316406 92.550781 539.59375 92.425781 531.671875 100.195312 C 490.773438 140.285156 465.363281 196.214844 465.363281 258.039062 C 465.363281 319.867188 490.773438 375.796875 531.671875 415.886719 C 539.59375 423.65625 552.316406 423.53125 560.085938 415.605469 C 567.855469 407.679688 567.726562 394.960938 559.804688 387.191406 C 526.296875 354.34375 505.550781 308.632812 505.550781 258.039062 C 505.550781 207.449219 526.296875 161.738281 559.804688 128.890625 Z M 559.804688 128.890625 " fill-opacity="1" fill-rule="evenodd"/></svg>