<svg xmlns="http://www.w3.org/2000/svg" width="24" height="24" fill="none" viewBox="0 0 24 24"><path fill="#C4E6FF" d="M9.5 22.7147C14.3707 21.5827 18 17.2152 18 12C18 6.78482 14.3707 2.4173 9.5 1.28533C10.3031 1.09868 11.1401 1 12 1C18.0751 1 23 5.92487 23 12C23 18.0751 18.0751 23 12 23C11.14 23 10.3031 22.9013 9.5 22.7147Z"/><path fill="#024493" fill-rule="evenodd" d="M12 3C7.02944 3 3 7.02944 3 12C3 16.9706 7.02944 21 12 21C16.9706 21 21 16.9706 21 12C21 7.02944 16.9706 3 12 3ZM1 12C1 5.92487 5.92487 1 12 1C18.0751 1 23 5.92487 23 12C23 18.0751 18.0751 23 12 23C5.92487 23 1 18.0751 1 12Z" clip-rule="evenodd"/><path fill="#1E93FF" fill-rule="evenodd" d="M12.8607 1.04945C13.4105 0.997358 13.8984 1.40085 13.9505 1.95067C13.9833 2.29629 14 2.64633 14 2.99998C14 5.12398 13.3971 7.1093 12.3534 8.79166C13.3938 9.64977 14.3502 10.6061 15.2083 11.6466C16.8907 10.6029 18.876 9.99998 21 9.99998C21.3536 9.99998 21.7037 10.0167 22.0493 10.0494C22.5991 10.1015 23.0026 10.5895 22.9505 11.1393C22.8984 11.6891 22.4105 12.0926 21.8607 12.0405C21.5776 12.0137 21.2906 12 21 12C19.3229 12 17.7547 12.4579 16.4114 13.2557C17.6854 15.1409 18.6616 17.2447 19.272 19.4995C19.4163 20.0326 19.1012 20.5818 18.5681 20.7261C18.035 20.8704 17.4858 20.5552 17.3415 20.0222C16.7992 18.019 15.9373 16.1468 14.8133 14.4634C13.0795 16.1049 12 18.4262 12 21C12 21.2906 12.0137 21.5776 12.0405 21.8607C12.0926 22.4105 11.6891 22.8984 11.1393 22.9505C10.5895 23.0026 10.1015 22.5991 10.0494 22.0493C10.0167 21.7037 9.99998 21.3536 9.99998 21C9.99998 17.769 11.3938 14.8634 13.6099 12.8521C12.8659 11.9584 12.0415 11.134 11.1478 10.3901C9.13654 12.6062 6.23092 14 2.99998 14C2.64633 14 2.29629 13.9833 1.95067 13.9505C1.40085 13.8984 0.997358 13.4105 1.04945 12.8607C1.10154 12.3108 1.58949 11.9073 2.13931 11.9594C2.42233 11.9862 2.70941 12 2.99998 12C5.57373 12 7.89511 10.9204 9.53653 9.18664C7.85321 8.06267 5.98092 7.20073 3.97781 6.65847C3.44472 6.51415 3.12955 5.965 3.27386 5.4319C3.41818 4.89881 3.96733 4.58364 4.50042 4.72795C6.75522 5.33835 8.85903 6.3146 10.7442 7.58856C11.5421 6.24528 12 4.67709 12 2.99998C12 2.70941 11.9862 2.42233 11.9594 2.13931C11.9073 1.58949 12.3108 1.10154 12.8607 1.04945Z" clip-rule="evenodd"/></svg>