<svg xmlns="http://www.w3.org/2000/svg" width="24" height="24" fill="none" viewBox="0 0 24 24"><path fill="#C4E6FF" d="M6.00879 15.0215C6.35093 15.6389 6.78065 16.2151 7.29843 16.7329C7.8905 17.325 8.55904 17.802 9.27831 18.1645C12.0097 19.5413 15.4102 19.2481 18.186 17.4981C18.837 17.0877 19.4558 16.5964 20.0263 16.0258C20.5969 15.4552 21.0883 14.8365 21.4987 14.1855C23.2486 11.4096 23.5418 8.00919 22.165 5.27777C21.8025 4.5585 21.3255 3.88996 20.7335 3.29789C20.216 2.78039 19.6401 2.35085 19.023 2.00879C19.0721 2.09743 19.1194 2.18693 19.1649 2.27722C20.5417 5.00865 20.2485 8.40909 18.4986 11.185C18.0882 11.836 17.5968 12.4547 17.0262 13.0253C16.4557 13.5958 15.8369 14.0872 15.1859 14.4976C12.4101 16.2476 9.00962 16.5407 6.27819 15.164C6.18757 15.1183 6.09775 15.0708 6.00879 15.0215Z"/><path fill="#FFFFFF" fill-rule="evenodd" d="M18.9681 2.03117C19.3586 2.4217 19.3586 3.05486 18.9681 3.44539L15.4138 6.99963L16.9996 8.58542L20.5643 5.0207C20.9549 4.63017 21.588 4.63017 21.9786 5.0207C22.3691 5.41122 22.3691 6.04439 21.9786 6.43491L18.4138 9.99963L21.3593 12.945C21.7498 13.3356 21.7498 13.9687 21.3593 14.3593C20.9687 14.7498 20.3356 14.7498 19.945 14.3593L16.9996 11.4138L15.4138 12.9996L18.3593 15.945C18.7498 16.3356 18.7498 16.9687 18.3593 17.3593C17.9687 17.7498 17.3356 17.7498 16.945 17.3593L13.9996 14.4138L10.4349 17.9786C10.0444 18.3691 9.41122 18.3691 9.0207 17.9786C8.63017 17.588 8.63017 16.9549 9.0207 16.5643L12.5854 12.9996L10.9996 11.4138L7.44539 14.9681C7.05486 15.3586 6.4217 15.3586 6.03117 14.9681C5.64065 14.5776 5.64065 13.9444 6.03117 13.5539L9.58542 9.99963L6.67141 7.08563C6.28089 6.6951 6.28089 6.06194 6.67141 5.67141C7.06194 5.28089 7.6951 5.28089 8.08563 5.67141L10.9996 8.58542L12.5854 6.99963L9.67142 4.08563C9.28089 3.6951 9.28089 3.06194 9.67142 2.67141C10.0619 2.28089 10.6951 2.28089 11.0856 2.67141L13.9996 5.58542L17.5539 2.03117C17.9444 1.64065 18.5776 1.64065 18.9681 2.03117ZM13.9996 8.41384L12.4138 9.99963L13.9996 11.5854L15.5854 9.99963L13.9996 8.41384Z" clip-rule="evenodd"/><path fill="#FFFFFF" fill-rule="evenodd" d="M17.8174 3.63447C15.7963 2.63318 13.1598 2.80766 10.9122 4.22458C10.3869 4.55576 9.88476 4.95403 9.41951 5.41927C8.95427 5.88451 8.556 6.38661 8.22482 6.91194C6.8079 9.15952 6.63343 11.7961 7.63471 13.8172C7.90574 14.3642 8.26429 14.8706 8.71241 15.3188C9.15079 15.7571 9.64492 16.1098 10.1783 16.3786C12.2041 17.3997 14.8582 17.2317 17.1192 15.8063C17.6446 15.4752 18.1467 15.0769 18.6119 14.6117C19.0771 14.1464 19.4754 13.6443 19.8066 13.119C21.232 10.858 21.3999 8.20381 20.3788 6.17803C20.11 5.64468 19.7574 5.15055 19.319 4.71216C18.8709 4.26405 18.3645 3.9055 17.8174 3.63447ZM9.8456 2.53272C12.6054 0.792902 15.982 0.493163 18.7053 1.84235C19.4428 2.20773 20.1279 2.69267 20.7332 3.29795C21.3253 3.89002 21.8023 4.55856 22.1648 5.27783C23.5416 8.00926 23.2484 11.4097 21.4985 14.1856C21.0881 14.8366 20.5967 15.4553 20.0261 16.0259C19.4555 16.5964 18.8368 17.0878 18.1858 17.4982C15.4099 19.2482 12.0095 19.5413 9.27807 18.1646C8.84858 17.9481 8.43718 17.6908 8.04934 17.3926L2.70525 22.7087C2.3137 23.0982 1.68054 23.0966 1.29104 22.705C0.901543 22.3135 0.903203 21.6803 1.29475 21.2908L6.63558 15.9779C6.32753 15.5768 6.06326 15.1504 5.84259 14.705C4.49341 11.9817 4.79315 8.60513 6.53296 5.84536C6.94336 5.19436 7.43472 4.57563 8.0053 4.00505C8.57588 3.43448 9.1946 2.94312 9.8456 2.53272Z" clip-rule="evenodd"/></svg>
