<svg xmlns="http://www.w3.org/2000/svg" width="24" height="24" fill="none" viewBox="0 0 24 24"><path fill="#C4E6FF" fill-rule="evenodd" d="M15.9999 1.00928C17.6794 1.12946 19.0724 2.39635 19.332 4.08325L20.9881 14.8479C21.0365 15.1627 20.932 15.4818 20.7068 15.707L15.7071 20.707C15.4818 20.9322 15.1627 21.0367 14.8479 20.9883L4.08327 19.3322C2.39629 19.0726 1.12936 17.6795 1.00928 15.9999L14.2929 16C14.7456 16 15.1799 15.8201 15.5 15.5C15.8201 15.1799 16 14.7456 16 14.2929L15.9999 1.00928Z" clip-rule="evenodd"/><path fill="#FFFFFF" fill-rule="evenodd" d="M5.47331 3.9835C5.91166 2.23008 7.48712 1 9.29451 1C10.6348 1 11.8777 1.681 12.6007 2.79785C13.2471 1.69402 14.4365 1 15.7381 1C17.5328 1 19.0591 2.30945 19.332 4.08332L20.9881 14.8479C21.0365 15.1628 20.9321 15.4819 20.7068 15.7071L15.7071 20.7071C15.4819 20.9323 15.1628 21.0368 14.8479 20.9883L4.08332 19.3322C2.30945 19.0593 1 17.533 1 15.7383C1 14.4367 1.6941 13.2472 2.79803 12.6008C1.68107 11.8778 1 10.6349 1 9.29451C1 7.48712 2.23008 5.91166 3.9835 5.47331L4.10961 5.44178C4.5141 5.34066 4.92553 5.30471 5.33013 5.33013C5.30471 4.92553 5.34066 4.5141 5.44178 4.10961L5.47331 3.9835ZM6.48513 7.89935C5.98868 7.40903 5.2722 7.21269 4.59468 7.38207L4.46857 7.41359C3.60548 7.62936 3 8.40485 3 9.29451C3 9.99026 3.3728 10.6327 3.97689 10.9779L15.833 17.7528L16.0857 17.5L6.49392 7.90818C6.49099 7.90524 6.48805 7.9023 6.48513 7.89935ZM14.2661 5.70015L18.7698 13.5816L17.3553 4.38743C17.2325 3.58923 16.5457 3 15.7381 3C15.0835 3 14.492 3.39008 14.2341 3.99169L14.1864 4.10314C13.965 4.6197 13.9948 5.20907 14.2661 5.70015ZM9.29451 3C8.40485 3 7.62936 3.60548 7.41359 4.46857L7.38207 4.59468C7.21168 5.27623 7.41138 5.9972 7.90814 6.49397L17.5 16.0858L17.7528 15.833L10.9779 3.97689C10.6327 3.3728 9.99026 3 9.29451 3ZM4.10314 14.1866C4.6278 13.9617 5.22755 13.996 5.72316 14.2792L13.5821 18.7701L4.38743 17.3555C3.58923 17.2327 3 16.5459 3 15.7383C3 15.0837 3.39008 14.4922 3.99169 14.2343L4.10314 14.1866Z" clip-rule="evenodd"/><path fill="#FFFFFF" fill-rule="evenodd" d="M19.2929 14.2929C19.6834 13.9024 20.3166 13.9024 20.7071 14.2929L21.6716 15.2574C22.5222 16.1079 23 17.2616 23 18.4645C23 20.9694 20.9694 23 18.4645 23C17.2616 23 16.1079 22.5222 15.2574 21.6716L14.2929 20.7071C13.9024 20.3166 13.9024 19.6834 14.2929 19.2929L19.2929 14.2929ZM16.4142 20L16.6716 20.2574C17.1471 20.7329 17.792 21 18.4645 21C19.8648 21 21 19.8648 21 18.4645C21 17.792 20.7329 17.1471 20.2574 16.6716L20 16.4142L16.4142 20Z" clip-rule="evenodd"/></svg>
