<svg xmlns="http://www.w3.org/2000/svg" width="24" height="24" fill="none" viewBox="0 0 24 24"><path fill="#C4E6FF" d="M9.5 22.7147C14.3707 21.5827 18 17.2152 18 12C18 6.78482 14.3707 2.4173 9.5 1.28533C10.3031 1.09868 11.1401 1 12 1C18.0751 1 23 5.92487 23 12C23 18.0751 18.0751 23 12 23C11.14 23 10.3031 22.9013 9.5 22.7147Z"/><path fill="#024493" fill-rule="evenodd" d="M12 3C7.02944 3 3 7.02944 3 12C3 16.9706 7.02944 21 12 21C16.9706 21 21 16.9706 21 12C21 7.02944 16.9706 3 12 3ZM1 12C1 5.92487 5.92487 1 12 1C18.0751 1 23 5.92487 23 12C23 18.0751 18.0751 23 12 23C5.92487 23 1 18.0751 1 12Z" clip-rule="evenodd"/><path fill="#1E93FF" fill-rule="evenodd" d="M8.82865 1.69304C9.15328 1.24623 9.77865 1.14719 10.2255 1.47182L12.0044 2.76429L13.7812 1.47322C14.228 1.14857 14.8533 1.24759 15.178 1.69438C15.5026 2.14118 15.4036 2.76655 14.9568 3.0912L13.0007 4.51252L13.0039 7.49024L15.984 9.65542L18.8178 8.73328L19.5627 6.44222C19.7335 5.917 20.2977 5.62968 20.823 5.80046C21.3482 5.97124 21.6355 6.53546 21.4647 7.06068L20.7853 9.14999L22.5606 10.4408C23.0072 10.7656 23.106 11.391 22.7813 11.8377C22.4565 12.2844 21.8311 12.3832 21.3844 12.0584L19.43 10.6373L16.6023 11.5574L15.4639 15.0611L17.2137 17.4737L19.6233 17.4713C20.1756 17.4707 20.6238 17.918 20.6244 18.4702C20.6249 19.0225 20.1777 19.4707 19.6254 19.4713L17.4258 19.4735L16.7468 21.5636C16.5762 22.0888 16.012 22.3763 15.4868 22.2057C14.9615 22.0351 14.674 21.4709 14.8446 20.9457L15.5922 18.6444L13.8454 16.236L10.1557 16.2344L8.40443 18.6495L9.14848 20.943C9.3189 21.4683 9.03119 22.0323 8.50586 22.2028C7.98053 22.3732 7.41651 22.0855 7.24608 21.5602L6.56754 19.4686L4.37081 19.4663C3.81852 19.4657 3.37127 19.0176 3.37184 18.4653C3.37241 17.913 3.82058 17.4657 4.37287 17.4663L6.79011 17.4688L8.53783 15.0586L7.40324 11.5539L4.56541 10.6352L2.61648 12.0522C2.16979 12.377 1.54438 12.2782 1.21959 11.8315C0.894802 11.3848 0.993618 10.7594 1.4403 10.4346L3.21765 9.14232L2.53905 7.05524C2.36828 6.53002 2.65562 5.96581 3.18084 5.79504C3.70606 5.62427 4.27027 5.91161 4.44104 6.43683L5.18813 8.73456L8.02182 9.65197L11.0039 7.49034L11.0007 4.50726L9.04987 3.08984C8.60306 2.76521 8.50402 2.13984 8.82865 1.69304ZM12.0038 9.23574L9.37244 11.1431L10.3732 14.2345L13.6291 14.2359L14.6331 11.1461L12.0038 9.23574Z" clip-rule="evenodd"/></svg>