<svg xmlns="http://www.w3.org/2000/svg" width="24" height="24" fill="none" viewBox="0 0 24 24"><path fill="#C4E6FF" fill-rule="evenodd" d="M22.3536 5.93941L20.7072 4.29297L15.293 9.70718L16.9394 11.3536C17.3533 11.7675 17.9147 12.0001 18.5001 12.0001C19.0854 12.0001 19.6468 11.7675 20.0607 11.3536L22.3536 9.06073C22.7675 8.64682 23.0001 8.08544 23.0001 7.50008C23.0001 6.91471 22.7675 6.35333 22.3536 5.93941ZM5.93942 22.3536L4.29297 20.7072L9.70718 15.293L11.3536 16.9394C11.7675 17.3533 12.0001 17.9147 12.0001 18.5001C12.0001 19.0854 11.7675 19.6468 11.3536 20.0607L9.06074 22.3536C8.64682 22.7675 8.08544 23.0001 7.50008 23.0001C6.91472 23.0001 6.35333 22.7675 5.93942 22.3536Z" clip-rule="evenodd"/><path fill="#024493" fill-rule="evenodd" d="M21.7071 3.70711C22.0976 3.31658 22.0976 2.68342 21.7071 2.29289C21.3166 1.90237 20.6834 1.90237 20.2929 2.29289L18.7929 3.79289C18.4024 4.18342 18.4024 4.81658 18.7929 5.20711C19.1834 5.59763 19.8166 5.59763 20.2071 5.20711L21.7071 3.70711ZM16.2071 7.79289C16.5976 8.18342 16.5976 8.81658 16.2071 9.20711L9.20711 16.2071C8.81658 16.5976 8.18342 16.5976 7.79289 16.2071C7.40237 15.8166 7.40237 15.1834 7.79289 14.7929L14.7929 7.79289C15.1834 7.40237 15.8166 7.40237 16.2071 7.79289ZM5.20711 18.7929C5.59763 19.1834 5.59763 19.8166 5.20711 20.2071L3.70711 21.7071C3.31658 22.0976 2.68342 22.0976 2.29289 21.7071C1.90237 21.3166 1.90237 20.6834 2.29289 20.2929L3.79289 18.7929C4.18342 18.4024 4.81658 18.4024 5.20711 18.7929Z" clip-rule="evenodd"/><path fill="#1E93FF" fill-rule="evenodd" d="M16.3536 3.06066C16.3924 3.02182 16.4451 3 16.5 3C16.5549 3 16.6076 3.02182 16.6464 3.06066L20.9393 7.35355C20.9782 7.39239 21 7.44507 21 7.5C21 7.55493 20.9782 7.60761 20.9393 7.64645L18.6464 9.93934C18.6076 9.97818 18.5549 10 18.5 10C18.4451 10 18.3924 9.97818 18.3536 9.93934L14.0607 5.64645C14.0218 5.60761 14 5.55493 14 5.5C14 5.44507 14.0218 5.39239 14.0607 5.35355L16.3536 3.06066ZM16.5 1C15.9146 1 15.3533 1.23253 14.9393 1.64645L12.6464 3.93934C12.2325 4.35325 12 4.91464 12 5.5C12 6.08536 12.2325 6.64675 12.6464 7.06066L16.9393 11.3536C17.3533 11.7675 17.9146 12 18.5 12C19.0854 12 19.6467 11.7675 20.0607 11.3536L22.3536 9.06066C22.7675 8.64675 23 8.08536 23 7.5C23 6.91464 22.7675 6.35325 22.3536 5.93934L18.0607 1.64645C17.6467 1.23253 17.0854 1 16.5 1ZM5.35355 14.0607C5.39239 14.0218 5.44507 14 5.5 14C5.55493 14 5.60761 14.0218 5.64645 14.0607L9.93934 18.3536C9.97818 18.3924 10 18.4451 10 18.5C10 18.5549 9.97818 18.6076 9.93934 18.6464L7.64645 20.9393C7.60761 20.9782 7.55493 21 7.5 21C7.44507 21 7.39239 20.9782 7.35355 20.9393L3.06066 16.6464C3.02182 16.6076 3 16.5549 3 16.5C3 16.4451 3.02182 16.3924 3.06066 16.3536L5.35355 14.0607ZM5.5 12C4.91464 12 4.35325 12.2325 3.93934 12.6464L1.64645 14.9393C1.23253 15.3533 1 15.9146 1 16.5C1 17.0854 1.23254 17.6467 1.64645 18.0607L5.93934 22.3536C6.35325 22.7675 6.91464 23 7.5 23C8.08536 23 8.64675 22.7675 9.06066 22.3536L11.3536 20.0607C11.7675 19.6467 12 19.0854 12 18.5C12 17.9146 11.7675 17.3533 11.3536 16.9393L7.06066 12.6464C6.64675 12.2325 6.08536 12 5.5 12Z" clip-rule="evenodd"/></svg>