<svg xmlns="http://www.w3.org/2000/svg" fill-rule="evenodd" stroke-linejoin="round" stroke-miterlimit="2" clip-rule="evenodd" viewBox="0 0 24 24"><path d="M2.308 16.541c0 0 .999-.45 1.903-.857.672-.302 1.449-.256 2.081.123l.445.267c1.188.712 2.671.712 3.859 0l.246-.148c.713-.427 1.603-.427 2.316 0l.246.148c1.188.712 2.671.712 3.859 0l.445-.267c.632-.379 1.409-.425 2.081-.123.904.407 1.903.857 1.903.857.378.17.822.001.992-.376.17-.378.001-.822-.376-.992 0 0-.999-.45-1.904-.857-1.119-.503-2.415-.427-3.468.205 0 0-.445.267-.445.267-.713.427-1.603.427-2.315 0l-.247-.148c-1.187-.713-2.671-.713-3.858 0l-.247.148c-.712.427-1.602.427-2.315 0l-.445-.267c-1.053-.632-2.349-.708-3.468-.205-.905.407-1.904.857-1.904.857-.377.17-.546.614-.376.992.17.377.614.546.992.376zM2.308 20.544c0 0 .999-.45 1.903-.857.672-.302 1.449-.256 2.081.123l.445.267c1.188.712 2.671.712 3.859 0l.246-.148c.713-.427 1.603-.427 2.316 0l.246.148c1.188.712 2.671.712 3.859 0l.445-.267c.632-.379 1.409-.425 2.081-.123.904.407 1.903.857 1.903.857.378.17.822.001.992-.376.17-.378.001-.822-.376-.992 0 0-.999-.45-1.904-.857-1.119-.504-2.415-.427-3.468.204 0 0-.445.268-.445.268-.713.427-1.603.427-2.315 0l-.247-.148c-1.187-.713-2.671-.713-3.858 0l-.247.148c-.712.427-1.602.427-2.315 0l-.445-.268c-1.053-.631-2.349-.708-3.468-.204-.905.407-1.904.857-1.904.857-.377.17-.546.614-.376.992.17.377.614.546.992.376zM15 6.75c-1.794 0-3.25 1.456-3.25 3.25 0 1.794 1.456 3.25 3.25 3.25 1.794 0 3.25-1.456 3.25-3.25 0-1.794-1.456-3.25-3.25-3.25zm0 1.5c.966 0 1.75.784 1.75 1.75 0 .966-.784 1.75-1.75 1.75-.966 0-1.75-.784-1.75-1.75 0-.966.784-1.75 1.75-1.75z"/><path d="M9.5,12c0,-4.001 3.249,-7.25 7.25,-7.25c0.414,0 0.75,-0.336 0.75,-0.75c0,-0.414 -0.336,-0.75 -0.75,-0.75c-4.829,0 -8.75,3.921 -8.75,8.75c-0,0.414 0.336,0.75 0.75,0.75c0.414,0 0.75,-0.336 0.75,-0.75Z"/></svg>