<svg xmlns="http://www.w3.org/2000/svg" width="24" height="24" fill="none" viewBox="0 0 24 24"><path fill="#FFFFFF" d="M16.1974 19.6116L14.4733 17.8875C16.6246 16.1459 18 13.4836 18 10.5C18 6.11852 15.0338 2.42982 11 1.33238C11.7966 1.11567 12.6348 1 13.5 1C18.7467 1 23 5.25329 23 10.5C23 12.9202 22.095 15.129 20.605 16.8065C20.2404 16.317 19.6572 16 19 16C17.8954 16 17 16.8954 17 18C17 18.4386 17.1412 18.8442 17.3806 19.1739C16.9988 19.3449 16.6038 19.4915 16.1974 19.6116Z"/><path fill="#FFFFFF" fill-rule="evenodd" d="M13.5001 3C10.2806 3 7.53243 5.02909 6.46956 7.88157C6.27672 8.39909 5.70086 8.6623 5.18334 8.46947C4.66581 8.27663 4.4026 7.70077 4.59544 7.18324C5.94043 3.57361 9.41845 1 13.5001 1C18.7468 1 23.0001 5.25329 23.0001 10.5C23.0001 12.5279 22.3636 14.4101 21.2795 15.9539C20.9621 16.4058 20.3384 16.5149 19.8864 16.1976C19.4345 15.8802 19.3254 15.2565 19.6427 14.8045C20.4981 13.5864 21.0001 12.1033 21.0001 10.5C21.0001 6.35786 17.6422 3 13.5001 3Z" clip-rule="evenodd"/><path fill="#FFFFFF" fill-rule="evenodd" d="M5.31968 6.55513C5.65226 6.48273 5.99883 6.58446 6.23951 6.82514L16.7071 17.2927C16.9555 17.5411 17.0459 17.8877 16.9783 18.2076C16.9921 18.2394 17.0044 18.2723 17.0151 18.3061C17.1814 18.8327 16.8892 19.3945 16.3625 19.5607C15.4579 19.8462 14.496 19.9998 13.5 19.9998C12.959 19.9998 12.4278 19.9545 11.9103 19.8673C10.2122 19.581 8.63468 19.7803 7.69275 20.7213L7.69178 20.7223L6.06068 22.3534C5.64675 22.7673 5.08533 22.9999 4.49994 22.9999C3.9146 22.9998 3.35325 22.7673 2.93936 22.3534L1.64645 21.0605C1.23253 20.6466 1 20.0852 1 19.4998C1 18.9145 1.23254 18.3531 1.64644 17.9392L3.27756 16.3081C4.21938 15.3662 4.41899 13.7882 4.13259 12.0896C4.04532 11.572 4 11.0408 4 10.4998C4 9.33502 4.2101 8.21698 4.59534 7.18308C4.71419 6.86414 4.9871 6.62754 5.31968 6.55513ZM6.25127 13.3344C6.24433 12.7886 6.18872 12.2551 6.10475 11.7571C6.03594 11.3489 6 10.929 6 10.4998C6 10.1545 6.02328 9.81483 6.06832 9.48237L8.08579 11.4998L6.25127 13.3344ZM9.5 12.9141L3.06066 19.3534C3.02182 19.3922 3 19.4449 3 19.4998C3 19.5548 3.02182 19.6074 3.06066 19.6463L4.35357 20.9392C4.39241 20.978 4.44509 20.9999 4.50001 20.9999C4.55494 20.9999 4.60762 20.978 4.64646 20.9392L11.0858 14.4998L9.5 12.9141ZM12.5 15.9141L10.6655 17.7486C11.2113 17.7555 11.7448 17.8111 12.2428 17.8951C12.6509 17.9639 13.0709 17.9998 13.5 17.9998C13.8454 17.9998 14.185 17.9766 14.5175 17.9315L12.5 15.9141Z" clip-rule="evenodd"/><path fill="#FFFFFF" fill-rule="evenodd" d="M19 16C17.8954 16 17 16.8954 17 18C17 19.1046 17.8954 20 19 20C20.1046 20 21 19.1046 21 18C21 16.8954 20.1046 16 19 16ZM15 18C15 15.7909 16.7909 14 19 14C21.2091 14 23 15.7909 23 18C23 20.2091 21.2091 22 19 22C16.7909 22 15 20.2091 15 18Z" clip-rule="evenodd"/></svg>
