<svg xmlns="http://www.w3.org/2000/svg" width="24" height="24" fill="none" viewBox="0 0 24 24"><path fill="#C4E6FF" d="M6.00879 15.0215C6.35093 15.6389 6.78065 16.2151 7.29843 16.7329C7.8905 17.325 8.55904 17.802 9.27831 18.1645C12.0097 19.5413 15.4102 19.2481 18.186 17.4981C18.837 17.0877 19.4558 16.5964 20.0263 16.0258C20.5969 15.4552 21.0883 14.8365 21.4987 14.1855C23.2486 11.4096 23.5418 8.00919 22.165 5.27777C21.8025 4.5585 21.3255 3.88996 20.7335 3.29789C20.216 2.78039 19.6401 2.35085 19.023 2.00879C19.0721 2.09743 19.1194 2.18693 19.1649 2.27722C20.5417 5.00865 20.2485 8.40909 18.4986 11.185C18.0882 11.836 17.5968 12.4547 17.0262 13.0253C16.4557 13.5958 15.8369 14.0872 15.1859 14.4976C12.4101 16.2476 9.00962 16.5407 6.27819 15.164C6.18757 15.1183 6.09775 15.0708 6.00879 15.0215Z"/><path fill="#1E93FF" fill-rule="evenodd" d="M18.9691 2.03166C19.3596 2.42219 19.3596 3.05535 18.9691 3.44588L15.4148 7.00012L17.0006 8.5859L20.5653 5.02118C20.9558 4.63066 21.589 4.63066 21.9795 5.02118C22.3701 5.41171 22.3701 6.04487 21.9795 6.4354L18.4148 10.0001L21.3602 12.9455C21.7508 13.3361 21.7508 13.9692 21.3602 14.3597C20.9697 14.7503 20.3365 14.7503 19.946 14.3597L17.0006 11.4143L15.4148 13.0001L18.3602 15.9455C18.7508 16.3361 18.7508 16.9692 18.3602 17.3597C17.9697 17.7503 17.3365 17.7503 16.946 17.3597L14.0006 14.4143L10.4359 17.9791C10.0454 18.3696 9.4122 18.3696 9.02167 17.9791C8.63115 17.5885 8.63115 16.9554 9.02167 16.5648L12.5864 13.0001L11.0006 11.4143L7.44636 14.9686C7.05584 15.3591 6.42268 15.3591 6.03215 14.9686C5.64163 14.578 5.64163 13.9449 6.03215 13.5544L9.58639 10.0001L6.67239 7.08612C6.28187 6.69559 6.28187 6.06243 6.67239 5.6719C7.06292 5.28138 7.69608 5.28138 8.0866 5.6719L11.0006 8.5859L12.5864 7.00012L9.67239 4.08612C9.28187 3.69559 9.28187 3.06243 9.67239 2.6719C10.0629 2.28138 10.6961 2.28138 11.0866 2.6719L14.0006 5.5859L17.5548 2.03166C17.9454 1.64114 18.5785 1.64114 18.9691 2.03166ZM14.0006 8.41433L12.4148 10.0001L14.0006 11.5859L15.5864 10.0001L14.0006 8.41433Z" clip-rule="evenodd"/><path fill="#024493" fill-rule="evenodd" d="M18.7063 1.84283C15.983 0.493651 12.6063 0.793391 9.84657 2.53321C9.19557 2.94361 8.57685 3.43497 8.00628 4.00554C7.43569 4.57612 6.94434 5.19485 6.53393 5.84585C5.52656 7.4438 5.00517 9.23941 5.001 10.9958C5.001 10.9966 5.001 10.9974 5.001 10.9981C5.001 10.9978 5.001 10.9985 5.001 10.9981C5.00098 11.0068 5.00097 11.0165 5.00098 11.0252C4.99828 12.8962 4.69532 14.7547 4.10362 16.5298L3.42555 18.564C3.22997 19.1507 2.89133 19.6954 2.45043 20.1363L1.29387 21.2929C0.903345 21.6834 0.903345 22.3166 1.29387 22.7071C1.68439 23.0976 2.31756 23.0976 2.70808 22.7071L3.86465 21.5505C4.30826 21.1069 4.84999 20.7739 5.44608 20.5783L7.46223 19.9168C9.23501 19.3351 11.0882 19.0364 12.9538 19.0314C12.9689 19.0315 12.984 19.0316 12.9991 19.0316C14.7676 19.0349 16.5774 18.5133 18.1868 17.4987C18.8378 17.0883 19.4565 16.5969 20.0271 16.0264C20.5977 15.4558 21.089 14.8371 21.4994 14.1861C23.2494 11.4102 23.5425 8.00974 22.1658 5.2783C21.8032 4.55904 21.3263 3.8905 20.7342 3.29844C20.1289 2.69316 19.4438 2.20822 18.7063 1.84283ZM10.9132 4.22507C13.1607 2.80815 15.7973 2.63367 17.8184 3.63496C18.3655 3.90599 18.8719 4.26453 19.32 4.71265C19.7584 5.15103 20.111 5.64516 20.3798 6.17851C21.4009 8.20429 21.233 10.8585 19.8076 13.1195C19.4764 13.6448 19.0781 14.1469 18.6129 14.6121C18.1476 15.0774 17.6455 15.4757 17.1202 15.8068C15.8188 16.6273 14.3781 17.0342 13.0028 17.0316C11.9992 17.0298 11.0347 16.8102 10.1794 16.3792C9.64602 16.1103 9.15182 15.7577 8.71338 15.3193C8.26529 14.8712 7.90676 14.3648 7.63574 13.8178C7.21255 12.9636 6.99888 12.002 7.00099 11.0024C7.00388 9.63538 7.41085 8.20514 8.2258 6.91244C8.55698 6.3871 8.95524 5.885 9.42049 5.41976C9.88573 4.95451 10.3878 4.55625 10.9132 4.22507ZM8.32256 17.593C7.96178 17.3401 7.6193 17.0536 7.29917 16.7335C6.9739 16.4082 6.68338 16.0599 6.4275 15.6927C6.30476 16.1874 6.16253 16.6776 6.00098 17.1622L5.5784 18.43L6.83873 18.0165C7.32821 17.8559 7.82321 17.7147 8.32256 17.593Z" clip-rule="evenodd"/></svg>