<svg xmlns="http://www.w3.org/2000/svg" width="24" height="24" fill="none" viewBox="0 0 24 24"><path fill="#C4E6FF" d="M9.5 22.7147C14.3707 21.5827 18 17.2152 18 12C18 6.78482 14.3707 2.4173 9.5 1.28533C10.3031 1.09868 11.1401 1 12 1C18.0751 1 23 5.92487 23 12C23 18.0751 18.0751 23 12 23C11.14 23 10.3031 22.9013 9.5 22.7147Z"/><path fill="#FFFFFF" fill-rule="evenodd" d="M12 3C7.02944 3 3 7.02944 3 12C3 16.9706 7.02944 21 12 21C16.9706 21 21 16.9706 21 12C21 7.02944 16.9706 3 12 3ZM1 12C1 5.92487 5.92487 1 12 1C18.0751 1 23 5.92487 23 12C23 18.0751 18.0751 23 12 23C5.92487 23 1 18.0751 1 12Z" clip-rule="evenodd"/><path fill="#FFFFFF" fill-rule="evenodd" d="M5.70004 4.1443C5.30566 3.75768 4.67252 3.76397 4.2859 4.15835C3.89928 4.55274 3.90557 5.18587 4.29996 5.5725C5.96737 7.20709 7 9.48197 7 11.9998C7 14.5177 5.96737 16.7926 4.29996 18.4272C3.90557 18.8138 3.89928 19.4469 4.2859 19.8413C4.67252 20.2357 5.30566 20.242 5.70004 19.8554C7.73536 17.8601 9 15.0768 9 11.9998C9 8.92291 7.73536 6.13955 5.70004 4.1443ZM19.7 5.5725C20.0944 5.18587 20.1007 4.55274 19.7141 4.15835C19.3275 3.76397 18.6943 3.75768 18.3 4.1443C16.2646 6.13955 15 8.92291 15 11.9998C15 15.0768 16.2646 17.8601 18.3 19.8554C18.6943 20.242 19.3275 20.2357 19.7141 19.8413C20.1007 19.4469 20.0944 18.8138 19.7 18.4272C18.0326 16.7926 17 14.5177 17 11.9998C17 9.48197 18.0326 7.20709 19.7 5.5725Z" clip-rule="evenodd"/></svg>
