<svg xmlns="http://www.w3.org/2000/svg" width="24" height="24" fill="none" viewBox="0 0 24 24"><path fill="#C4E6FF" d="M9.5 22.7147C14.3707 21.5827 18 17.2152 18 12C18 6.78482 14.3707 2.4173 9.5 1.28533C10.3031 1.09868 11.1401 1 12 1C18.0751 1 23 5.92487 23 12C23 18.0751 18.0751 23 12 23C11.14 23 10.3031 22.9013 9.5 22.7147Z"/><path fill="#024493" fill-rule="evenodd" d="M12 3C7.02944 3 3 7.02944 3 12C3 16.9706 7.02944 21 12 21C16.9706 21 21 16.9706 21 12C21 7.02944 16.9706 3 12 3ZM1 12C1 5.92487 5.92487 1 12 1C18.0751 1 23 5.92487 23 12C23 18.0751 18.0751 23 12 23C5.92487 23 1 18.0751 1 12Z" clip-rule="evenodd"/><path fill="#1E93FF" d="M13.106 10.539C12.7193 10.6492 12.3973 10.7602 12.1489 10.8543C11.9909 10.7231 11.7946 10.5507 11.5737 10.3366C11.0714 9.85013 10.446 9.15282 9.85069 8.2389C9.95309 8.20488 10.0615 8.16964 10.1754 8.13359C11.0558 7.85497 12.2457 7.53412 13.507 7.35239C16.0872 6.98065 18.2785 7.02923 20.1266 7.50339C20.6616 7.64064 21.2065 7.31823 21.3438 6.78327C21.481 6.24831 21.1586 5.70338 20.6237 5.56613C18.4439 5.00691 15.9719 4.97661 13.2218 5.37283C11.8181 5.57507 10.5167 5.92782 9.57193 6.2268C9.31677 6.30756 9.08635 6.3848 8.88553 6.4547C8.56488 5.72605 8.35803 5.0666 8.2254 4.53748C8.12388 4.13245 8.06638 3.80591 8.03462 3.58614C8.0198 3.48364 8.00642 3.38072 7.99839 3.27743C7.96433 2.73423 7.48326 2.30873 6.9399 2.34163C6.38863 2.37501 5.96879 2.84897 6.00217 3.40024C6.00554 3.44706 6.00938 3.4938 6.01406 3.54051C6.02206 3.62034 6.03494 3.73214 6.05518 3.8722C6.09563 4.15214 6.16567 4.54601 6.28542 5.02376C6.52464 5.9781 6.96438 7.27557 7.7694 8.6699C8.5716 10.0593 9.47519 11.0884 10.1821 11.7732C10.4712 12.0532 10.7285 12.2767 10.9342 12.4449C10.8996 12.6472 10.8485 12.9033 10.7736 13.2015C10.6034 13.8798 10.3122 14.77 9.81839 15.7425C9.73772 15.6709 9.653 15.5946 9.56484 15.514C8.88336 14.8909 8.01052 14.0208 7.22247 13.0193C5.61048 10.9707 4.5569 9.04872 4.04344 7.21107C3.89482 6.67916 3.34314 6.36844 2.81123 6.51706C2.27932 6.66568 1.9686 7.21736 2.11722 7.74928C2.72278 9.91658 3.93258 12.0726 5.65072 14.2561C6.52773 15.3706 7.48394 16.3213 8.21524 16.99C8.41276 17.1706 8.59486 17.3315 8.7558 17.4705C8.2851 18.1125 7.81742 18.6214 7.42551 19.0008C7.12551 19.2912 6.87147 19.5043 6.69702 19.6417C6.61565 19.7058 6.53322 19.7688 6.44777 19.8274C5.99439 20.1285 5.86643 20.7579 6.1666 21.212C6.47114 21.6727 7.09152 21.7993 7.55225 21.4948C7.59111 21.4685 7.62967 21.4418 7.66777 21.4144C7.73291 21.3675 7.8233 21.3005 7.93447 21.2129C8.15668 21.0379 8.46276 20.7803 8.81663 20.4377C9.5235 19.7534 10.4273 18.7238 11.2323 17.3295C12.0345 15.9401 12.4739 14.643 12.7134 13.6884C12.8114 13.2982 12.8763 12.9637 12.919 12.7015C13.1116 12.6303 13.3588 12.5466 13.6543 12.4624C14.3268 12.2707 15.2434 12.0777 16.3325 12.0191C16.3108 12.1248 16.2871 12.2363 16.2613 12.353C16.0625 13.2547 15.7454 14.4457 15.2721 15.6289C14.3039 18.0492 13.1662 19.9226 11.8315 21.2861C11.4452 21.6808 11.4519 22.3139 11.8466 22.7002C12.2412 23.0866 12.8744 23.0798 13.2607 22.6852C14.8349 21.0771 16.0971 18.9513 17.129 16.3717C17.6557 15.0549 18.001 13.7514 18.2144 12.7838C18.2721 12.5224 18.3204 12.2842 18.3602 12.0754C19.1516 12.162 19.8261 12.3126 20.3507 12.4623C20.7522 12.5769 21.0637 12.6903 21.2699 12.7727C21.3661 12.8112 21.4619 12.851 21.5554 12.8957C22.0429 13.1378 22.6519 12.9339 22.8951 12.4469C23.1418 11.9528 22.9413 11.3523 22.4472 11.1055C22.4049 11.085 22.3625 11.065 22.3197 11.0457C22.2466 11.0127 22.1433 10.968 22.0119 10.9155C21.7493 10.8105 21.3731 10.6742 20.8995 10.5391C19.9534 10.2691 18.6099 10.0012 16.9999 10.0012C15.3955 10.0012 14.0525 10.2692 13.106 10.539Z"/></svg>